HIERARCHY
ROOT Hips
{
	OFFSET -344.582550 -583.924072 89.219704
	CHANNELS 6 Xposition Yposition Zposition Zrotation Yrotation Xrotation
	JOINT Spine
	{
		OFFSET 0.000000 2.080078 8.814247
		CHANNELS 6 Xposition Yposition Zposition Zrotation Yrotation Xrotation
		JOINT Spine1
		{
			OFFSET 0.000000 0.000000 8.844139
			CHANNELS 6 Xposition Yposition Zposition Zrotation Yrotation Xrotation
			JOINT Spine2
			{
				OFFSET 0.000000 0.000000 11.682266
				CHANNELS 6 Xposition Yposition Zposition Zrotation Yrotation Xrotation
				JOINT Spine3
				{
					OFFSET 0.000000 0.000000 11.746696
					CHANNELS 6 Xposition Yposition Zposition Zrotation Yrotation Xrotation
					JOINT Neck
					{
						OFFSET 0.000000 0.000000 17.658264
						CHANNELS 6 Xposition Yposition Zposition Zrotation Yrotation Xrotation
						JOINT Neck1
						{
							OFFSET 0.000000 0.000000 5.101517
							CHANNELS 6 Xposition Yposition Zposition Zrotation Yrotation Xrotation
							JOINT Head
							{
								OFFSET 0.000000 0.000000 5.101517
								CHANNELS 6 Xposition Yposition Zposition Zrotation Yrotation Xrotation
								JOINT HeadEnd
								{
									OFFSET 0.000000 0.000000 11.655090
									CHANNELS 6 Xposition Yposition Zposition Zrotation Yrotation Xrotation
									End Site
									{
										OFFSET 0.000000 0.000000 0.100006
									}
								}
							}
						}
					}
					JOINT RightShoulder
					{
						OFFSET -2.625397 0.000000 11.175217
						CHANNELS 6 Xposition Yposition Zposition Zrotation Yrotation Xrotation
						JOINT RightArm
						{
							OFFSET 0.000000 0.000000 10.434708
							CHANNELS 6 Xposition Yposition Zposition Zrotation Yrotation Xrotation
							JOINT RightForeArm
							{
								OFFSET 0.000000 0.000000 29.628418
								CHANNELS 6 Xposition Yposition Zposition Zrotation Yrotation Xrotation
								JOINT RightHand
								{
									OFFSET 0.000000 0.000000 22.857605
									CHANNELS 6 Xposition Yposition Zposition Zrotation Yrotation Xrotation
									JOINT RightHandThumb1
									{
										OFFSET -2.867310 -2.944275 3.959564
										CHANNELS 6 Xposition Yposition Zposition Zrotation Yrotation Xrotation
										JOINT RightHandThumb2
										{
											OFFSET 0.000000 0.000000 3.350403
											CHANNELS 6 Xposition Yposition Zposition Zrotation Yrotation Xrotation
											JOINT RightHandThumb3
											{
												OFFSET 0.000000 0.000000 3.756516
												CHANNELS 6 Xposition Yposition Zposition Zrotation Yrotation Xrotation
												JOINT RightHandThumb4
												{
													OFFSET 0.000000 0.000000 3.147339
													CHANNELS 6 Xposition Yposition Zposition Zrotation Yrotation Xrotation
													End Site
													{
														OFFSET 0.000000 0.000000 0.100006
													}
												}
											}
										}
									}
									JOINT RightHandIndex1
									{
										OFFSET -0.086761 -2.345276 10.030899
										CHANNELS 6 Xposition Yposition Zposition Zrotation Yrotation Xrotation
										JOINT RightHandIndex2
										{
											OFFSET 0.000000 0.000000 4.061096
											CHANNELS 6 Xposition Yposition Zposition Zrotation Yrotation Xrotation
											JOINT RightHandIndex3
											{
												OFFSET 0.000000 0.000000 3.248871
												CHANNELS 6 Xposition Yposition Zposition Zrotation Yrotation Xrotation
												JOINT RightHandIndex4
												{
													OFFSET 0.000000 0.000000 2.639709
													CHANNELS 6 Xposition Yposition Zposition Zrotation Yrotation Xrotation
													End Site
													{
														OFFSET 0.000000 0.000000 0.100006
													}
												}
											}
										}
									}
									JOINT RightHandMiddle1
									{
										OFFSET 0.104095 -0.006775 9.502945
										CHANNELS 6 Xposition Yposition Zposition Zrotation Yrotation Xrotation
										JOINT RightHandMiddle2
										{
											OFFSET 0.000000 0.000000 4.568726
											CHANNELS 6 Xposition Yposition Zposition Zrotation Yrotation Xrotation
											JOINT RightHandMiddle3
											{
												OFFSET 0.000000 0.000000 3.654984
												CHANNELS 6 Xposition Yposition Zposition Zrotation Yrotation Xrotation
												JOINT RightHandMiddle4
												{
													OFFSET 0.000000 0.000000 2.741241
													CHANNELS 6 Xposition Yposition Zposition Zrotation Yrotation Xrotation
													End Site
													{
														OFFSET 0.000000 0.000000 0.100006
													}
												}
											}
										}
									}
									JOINT RightHandRing1
									{
										OFFSET 0.086761 2.267456 8.921707
										CHANNELS 6 Xposition Yposition Zposition Zrotation Yrotation Xrotation
										JOINT RightHandRing2
										{
											OFFSET 0.000000 0.000000 4.061096
											CHANNELS 6 Xposition Yposition Zposition Zrotation Yrotation Xrotation
											JOINT RightHandRing3
											{
												OFFSET 0.000000 0.000000 3.654984
												CHANNELS 6 Xposition Yposition Zposition Zrotation Yrotation Xrotation
												JOINT RightHandRing4
												{
													OFFSET 0.000000 0.000000 2.741241
													CHANNELS 6 Xposition Yposition Zposition Zrotation Yrotation Xrotation
													End Site
													{
														OFFSET 0.000000 0.000000 0.100006
													}
												}
											}
										}
									}
									JOINT RightHandPinky1
									{
										OFFSET -0.173492 4.467224 7.976990
										CHANNELS 6 Xposition Yposition Zposition Zrotation Yrotation Xrotation
										JOINT RightHandPinky2
										{
											OFFSET 0.000000 0.000000 3.350403
											CHANNELS 6 Xposition Yposition Zposition Zrotation Yrotation Xrotation
											JOINT RightHandPinky3
											{
												OFFSET 0.000000 0.000000 2.842758
												CHANNELS 6 Xposition Yposition Zposition Zrotation Yrotation Xrotation
												JOINT RightHandPinky4
												{
													OFFSET 0.000000 0.000000 2.639709
													CHANNELS 6 Xposition Yposition Zposition Zrotation Yrotation Xrotation
													End Site
													{
														OFFSET 0.000000 0.000000 0.100006
													}
												}
											}
										}
									}
									JOINT RightForeArmEnd
									{
										OFFSET 0.000000 0.000000 0.000000
										CHANNELS 6 Xposition Yposition Zposition Zrotation Yrotation Xrotation
										End Site
										{
											OFFSET 0.000000 0.000000 0.100006
										}
									}
								}
								JOINT RightArmEnd
								{
									OFFSET 0.000000 0.000000 0.000000
									CHANNELS 6 Xposition Yposition Zposition Zrotation Yrotation Xrotation
									End Site
									{
										OFFSET 0.000000 0.000000 0.100006
									}
								}
							}
						}
					}
					JOINT LeftShoulder
					{
						OFFSET 2.625397 0.000000 11.175217
						CHANNELS 6 Xposition Yposition Zposition Zrotation Yrotation Xrotation
						JOINT LeftArm
						{
							OFFSET 0.000000 0.000000 10.813629
							CHANNELS 6 Xposition Yposition Zposition Zrotation Yrotation Xrotation
							JOINT LeftForeArm
							{
								OFFSET 0.000000 0.000000 28.724777
								CHANNELS 6 Xposition Yposition Zposition Zrotation Yrotation Xrotation
								JOINT LeftHand
								{
									OFFSET 0.644379 0.328857 25.716171
									CHANNELS 6 Xposition Yposition Zposition Zrotation Yrotation Xrotation
									JOINT LeftHandThumb1
									{
										OFFSET 2.867310 -2.944275 3.959564
										CHANNELS 6 Xposition Yposition Zposition Zrotation Yrotation Xrotation
										JOINT LeftHandThumb2
										{
											OFFSET 0.000000 0.000000 3.350403
											CHANNELS 6 Xposition Yposition Zposition Zrotation Yrotation Xrotation
											JOINT LeftHandThumb3
											{
												OFFSET 0.000000 0.000000 3.756516
												CHANNELS 6 Xposition Yposition Zposition Zrotation Yrotation Xrotation
												JOINT LeftHandThumb4
												{
													OFFSET 0.000000 0.000000 3.100006
													CHANNELS 6 Xposition Yposition Zposition Zrotation Yrotation Xrotation
													End Site
													{
														OFFSET 0.000000 0.000000 0.100006
													}
												}
											}
										}
									}
									JOINT LeftHandIndex1
									{
										OFFSET 0.086761 -2.345276 10.030899
										CHANNELS 6 Xposition Yposition Zposition Zrotation Yrotation Xrotation
										JOINT LeftHandIndex2
										{
											OFFSET 0.000000 0.000000 4.061096
											CHANNELS 6 Xposition Yposition Zposition Zrotation Yrotation Xrotation
											JOINT LeftHandIndex3
											{
												OFFSET 0.000000 0.000000 3.248871
												CHANNELS 6 Xposition Yposition Zposition Zrotation Yrotation Xrotation
												JOINT LeftHandIndex4
												{
													OFFSET 0.000000 0.000000 2.639709
													CHANNELS 6 Xposition Yposition Zposition Zrotation Yrotation Xrotation
													End Site
													{
														OFFSET 0.000000 0.000000 0.100006
													}
												}
											}
										}
									}
									JOINT LeftHandMiddle1
									{
										OFFSET -0.104095 -0.006775 9.502945
										CHANNELS 6 Xposition Yposition Zposition Zrotation Yrotation Xrotation
										JOINT LeftHandMiddle2
										{
											OFFSET 0.000000 0.000000 4.568726
											CHANNELS 6 Xposition Yposition Zposition Zrotation Yrotation Xrotation
											JOINT LeftHandMiddle3
											{
												OFFSET 0.000000 0.000000 3.654984
												CHANNELS 6 Xposition Yposition Zposition Zrotation Yrotation Xrotation
												JOINT LeftHandMiddle4
												{
													OFFSET 0.000000 0.000000 2.741241
													CHANNELS 6 Xposition Yposition Zposition Zrotation Yrotation Xrotation
													End Site
													{
														OFFSET 0.000000 0.000000 0.100006
													}
												}
											}
										}
									}
									JOINT LeftHandRing1
									{
										OFFSET -0.086761 2.267456 8.921707
										CHANNELS 6 Xposition Yposition Zposition Zrotation Yrotation Xrotation
										JOINT LeftHandRing2
										{
											OFFSET 0.000000 0.000000 4.061096
											CHANNELS 6 Xposition Yposition Zposition Zrotation Yrotation Xrotation
											JOINT LeftHandRing3
											{
												OFFSET 0.000000 0.000000 3.654984
												CHANNELS 6 Xposition Yposition Zposition Zrotation Yrotation Xrotation
												JOINT LeftHandRing4
												{
													OFFSET 0.000000 0.000000 2.741241
													CHANNELS 6 Xposition Yposition Zposition Zrotation Yrotation Xrotation
													End Site
													{
														OFFSET 0.000000 0.000000 0.100006
													}
												}
											}
										}
									}
									JOINT LeftHandPinky1
									{
										OFFSET 0.173492 4.467224 7.976990
										CHANNELS 6 Xposition Yposition Zposition Zrotation Yrotation Xrotation
										JOINT LeftHandPinky2
										{
											OFFSET 0.000000 0.000000 3.350403
											CHANNELS 6 Xposition Yposition Zposition Zrotation Yrotation Xrotation
											JOINT LeftHandPinky3
											{
												OFFSET 0.000000 0.000000 2.842758
												CHANNELS 6 Xposition Yposition Zposition Zrotation Yrotation Xrotation
												JOINT LeftHandPinky4
												{
													OFFSET 0.000000 0.000000 2.639709
													CHANNELS 6 Xposition Yposition Zposition Zrotation Yrotation Xrotation
													End Site
													{
														OFFSET 0.000000 0.000000 0.100006
													}
												}
											}
										}
									}
									JOINT LeftForeArmEnd
									{
										OFFSET 0.000000 0.000000 0.000000
										CHANNELS 6 Xposition Yposition Zposition Zrotation Yrotation Xrotation
										End Site
										{
											OFFSET 0.000000 0.000000 0.100006
										}
									}
								}
								JOINT LeftArmEnd
								{
									OFFSET 0.000000 0.000000 0.000000
									CHANNELS 6 Xposition Yposition Zposition Zrotation Yrotation Xrotation
									End Site
									{
										OFFSET 0.000000 0.000000 0.100006
									}
								}
							}
						}
					}
				}
			}
		}
	}
	JOINT RightUpLeg
	{
		OFFSET -11.289948 0.000000 0.000000
		CHANNELS 6 Xposition Yposition Zposition Zrotation Yrotation Xrotation
		JOINT RightLeg
		{
			OFFSET 0.000000 0.000000 -38.200325
			CHANNELS 6 Xposition Yposition Zposition Zrotation Yrotation Xrotation
			JOINT RightFoot
			{
				OFFSET 0.000000 0.000000 -39.900856
				CHANNELS 6 Xposition Yposition Zposition Zrotation Yrotation Xrotation
				JOINT RightToeBase
				{
					OFFSET 0.000000 -15.261658 0.000001
					CHANNELS 6 Xposition Yposition Zposition Zrotation Yrotation Xrotation
					JOINT RightToeBaseEnd
					{
						OFFSET 0.000000 -7.370728 0.000001
						CHANNELS 6 Xposition Yposition Zposition Zrotation Yrotation Xrotation
						End Site
						{
							OFFSET 0.000000 0.000000 0.100000
						}
					}
				}
				JOINT RightLegEnd
				{
					OFFSET 0.000000 0.000000 0.000000
					CHANNELS 6 Xposition Yposition Zposition Zrotation Yrotation Xrotation
					End Site
					{
						OFFSET 0.000000 0.000000 0.100000
					}
				}
			}
			JOINT RightUpLegEnd
			{
				OFFSET 0.000000 0.000000 0.000000
				CHANNELS 6 Xposition Yposition Zposition Zrotation Yrotation Xrotation
				End Site
				{
					OFFSET 0.000000 0.000000 0.099998
				}
			}
		}
	}
	JOINT LeftUpLeg
	{
		OFFSET 11.315674 0.000000 0.000000
		CHANNELS 6 Xposition Yposition Zposition Zrotation Yrotation Xrotation
		JOINT LeftLeg
		{
			OFFSET 0.000000 0.000000 -38.200325
			CHANNELS 6 Xposition Yposition Zposition Zrotation Yrotation Xrotation
			JOINT LeftFoot
			{
				OFFSET 0.000000 0.000000 -39.900856
				CHANNELS 6 Xposition Yposition Zposition Zrotation Yrotation Xrotation
				JOINT LeftToeBase
				{
					OFFSET 0.000000 -15.261658 0.000001
					CHANNELS 6 Xposition Yposition Zposition Zrotation Yrotation Xrotation
					JOINT LeftToeBaseEnd
					{
						OFFSET 0.000000 -7.539978 0.000001
						CHANNELS 6 Xposition Yposition Zposition Zrotation Yrotation Xrotation
						End Site
						{
							OFFSET 0.000000 0.000000 0.100000
						}
					}
				}
				JOINT LeftLegEnd
				{
					OFFSET 0.000000 0.000000 0.000000
					CHANNELS 6 Xposition Yposition Zposition Zrotation Yrotation Xrotation
					End Site
					{
						OFFSET 0.000000 0.000000 0.100000
					}
				}
			}
			JOINT LeftUpLegEnd
			{
				OFFSET 0.000000 0.000000 0.000000
				CHANNELS 6 Xposition Yposition Zposition Zrotation Yrotation Xrotation
				End Site
				{
					OFFSET 0.000000 0.000000 0.099998
				}
			}
		}
	}
}
MOTION
Frames: 2
Frame Time: 0.016667
-2.722351 -7.760986 87.807426 15.211735 1.501571 -14.678128 -0.000013 2.080091 8.814243 0.024703 -2.709860 10.240988 -0.000014 -0.000022 8.844152 0.441389 0.554679 4.361661 0.000005 0.000002 11.682269 1.867721 2.044824 5.211936 -0.000004 0.000016 11.746691 0.862222 4.529073 5.703231 -0.000034 0.000027 17.658272 11.884002 24.405511 24.367065 0.000032 0.000000 5.101505 4.845446 1.408293 6.644622 0.000007 0.000023 5.101482 -1.671489 3.807454 -13.085595 -0.000018 0.000009 11.655065 -0.000002 0.000000 -0.000000 -2.625374 0.000025 11.175221 19.259954 -76.098505 0.342281 -0.000010 -0.000004 10.434719 -67.834263 -35.899201 74.222375 -0.000005 0.000034 29.628382 4.357577 0.159710 30.091256 0.000019 -0.000046 22.857594 22.685399 -7.064737 -9.860042 -2.867340 -2.944305 3.959595 33.344806 -11.330758 61.626488 0.000012 0.000004 3.350410 0.000003 -0.000006 -0.000088 -0.000014 0.000004 3.756499 -0.000001 -0.000134 -0.000003 -0.000005 -0.000054 3.147363 -0.000000 0.000001 -0.000000 -0.086819 -2.345309 10.030890 -11.970018 -16.740300 3.071634 -0.000021 -0.000047 4.061087 0.322064 -11.973407 1.707693 -0.000052 -0.000079 3.248844 -0.178765 -11.973422 1.707862 -0.000031 -0.000065 2.639684 -0.000000 -0.000002 -0.000000 0.104103 -0.006792 9.502957 -6.491065 -15.738590 1.032758 -0.000009 -0.000051 4.568743 0.456347 -11.199317 0.587902 -0.000020 -0.000082 3.654976 -0.053670 -11.199347 0.589850 -0.000040 -0.000002 2.741236 0.000001 0.000002 0.000000 0.086740 2.267382 8.921713 1.653292 -16.803806 -0.331354 -0.000018 -0.000082 4.061088 -0.929079 -11.907418 -0.733609 -0.000079 -0.000060 3.654979 0.059857 -11.907714 -0.726518 -0.000033 -0.000058 2.741210 -0.000001 0.000001 -0.000001 -0.173481 4.467219 7.976982 10.513909 -16.517127 -3.277306 0.000010 -0.000017 3.350435 -1.764110 -11.737123 -2.314193 0.000012 -0.000016 2.842762 0.232544 -11.737503 -2.313496 -0.000031 -0.000017 2.639683 0.000003 -0.000002 -0.000001 0.000017 -0.000004 0.000010 0.000001 -0.000001 0.000000 -0.000001 -0.000002 -0.000010 0.000000 0.000000 -0.000000 2.625359 0.000017 11.175227 -16.915641 72.183618 -0.248111 -0.000011 -0.000017 10.813625 60.439203 44.720804 62.873230 0.000015 0.000010 28.724752 2.530813 0.422938 39.965100 0.644405 0.328850 25.716167 -27.301798 2.749297 -16.518295 2.867332 -2.944275 3.959572 -33.320641 11.311044 61.555905 0.000008 0.000004 3.350418 0.011021 -0.011028 -0.022266 -0.000014 0.000014 3.756493 0.011028 -0.011024 -0.022281 -0.000008 -0.000012 3.100004 0.000000 -0.000000 0.000002 0.086754 -2.345260 10.030888 -5.878231 15.986894 -3.654316 -0.000007 -0.000023 4.061094 0.333955 11.509588 -1.640055 0.000018 0.000016 3.248892 -0.169138 11.509589 -1.640688 -0.000008 0.000006 2.639680 -0.000001 0.000000 -0.000000 -0.104109 -0.006771 9.502932 -0.845596 15.293552 -2.093383 -0.000006 -0.000022 4.568737 0.442696 10.929734 -0.580215 -0.000001 -0.000016 3.654994 -0.049176 10.929722 -0.578671 -0.000015 0.000061 2.741244 -0.000001 0.000000 -0.000000 -0.086761 2.267459 8.921690 7.763471 16.845874 0.750732 -0.000011 -0.000016 4.061108 -0.916368 11.960699 0.743620 -0.000013 0.000011 3.654983 0.083183 11.960806 0.743494 -0.000007 0.000006 2.741218 -0.000000 0.000002 0.000000 0.173489 4.467254 7.976990 16.679194 16.629941 3.846351 0.000010 -0.000014 3.350412 -1.753411 11.903293 2.348662 -0.000008 -0.000056 2.842758 0.248954 11.903297 2.349168 0.000010 -0.000005 2.639719 0.000002 -0.000000 -0.000001 0.000005 -0.000015 -0.000001 0.000002 0.000000 -0.000001 -0.000005 0.000002 -0.000002 0.000000 -0.000002 0.000001 -11.289960 0.000015 -0.000016 -11.468422 1.629992 11.760474 0.000003 -0.000005 -38.200321 -0.482695 0.118139 13.735871 -0.000028 -0.000021 -39.900860 -13.217984 0.822335 15.399245 -0.000017 -15.261651 0.000028 1.258554 0.659121 -17.014889 0.000007 -7.370728 0.000001 0.000000 0.000000 0.000002 -0.000002 -0.000060 -0.000000 -0.000000 0.000000 0.000002 0.000002 -0.000002 -0.000003 0.000000 0.000000 -0.000002 11.315676 -0.000070 -0.000004 -8.635170 -6.353214 4.194128 0.000004 -0.000047 -38.200333 0.835908 -0.351790 22.507743 0.000014 -0.000086 -39.900856 1.213420 0.800589 15.473635 -0.000000 -15.261692 0.000026 -0.499040 -1.031607 -22.187023 0.000010 -7.539975 0.000002 -0.000001 -0.000000 0.000000 0.000000 -0.000005 0.000001 0.000001 -0.000000 0.000002 -0.000006 0.000011 0.000001 -0.000002 -0.000001 0.000000 
-2.698792 -7.798035 87.816879 15.222299 1.481123 -14.584011 -0.000013 2.080070 8.814251 0.022350 -2.719799 10.202919 0.000012 -0.000006 8.844152 0.439455 0.555328 4.347709 -0.000001 0.000009 11.682267 1.855041 2.043880 5.171349 -0.000023 -0.000011 11.746689 0.849519 4.555955 5.665931 0.000003 0.000004 17.658272 11.878852 24.448368 24.321614 -0.000002 -0.000027 5.101496 4.835477 1.395611 6.625354 0.000011 -0.000016 5.101492 -1.664190 3.786605 -13.123747 0.000007 -0.000017 11.655092 0.000003 0.000002 0.000003 -2.625404 0.000002 11.175216 19.200377 -76.032846 0.343303 -0.000032 0.000008 10.434708 -67.871959 -35.649766 74.202670 0.000002 0.000076 29.628408 4.510096 0.160827 30.439763 0.000019 -0.000008 22.857624 22.567459 -7.060688 -9.805586 -2.867310 -2.944290 3.959564 33.352070 -11.326890 61.604188 0.000012 -0.000019 3.350405 0.000001 -0.000007 0.039531 -0.000039 0.000028 3.756499 -0.000000 -0.000134 -0.018652 -0.000014 -0.000058 3.147366 -0.000000 -0.000003 0.000000 -0.086845 -2.345325 10.030886 -11.996079 -16.852261 3.047734 -0.000018 -0.000069 4.061092 0.320924 -12.049061 1.718547 -0.000023 -0.000087 3.248846 -0.179354 -12.049055 1.718780 -0.000033 -0.000060 2.639696 -0.000000 -0.000000 -0.000000 0.104107 -0.006788 9.502884 -6.510160 -15.832665 0.993173 0.000011 -0.000082 4.568732 0.456412 -11.264223 0.588571 0.000007 -0.000043 3.655006 -0.053467 -11.264270 0.590837 -0.000028 0.000007 2.741196 -0.000001 -0.000002 0.000000 0.086740 2.267418 8.921694 1.642254 -16.866292 -0.366525 -0.000052 -0.000037 4.061083 -0.929207 -11.955053 -0.732960 -0.000108 -0.000065 3.654980 0.059879 -11.953417 -0.727662 -0.000023 -0.000054 2.741227 -0.000001 0.000001 -0.000001 -0.173462 4.467240 7.976963 10.512605 -16.556319 -3.269007 0.000013 0.000021 3.350382 -1.764129 -11.762504 -2.316503 -0.000005 0.000011 2.842783 0.233063 -11.762656 -2.316343 -0.000007 0.000013 2.639713 -0.000001 -0.000004 -0.000001 0.000007 0.000003 -0.000005 -0.000000 -0.000000 0.000000 0.000002 0.000001 0.000000 -0.000000 0.000001 0.000000 2.625389 0.000019 11.175203 -16.865714 72.153879 -0.246668 -0.000019 -0.000027 10.813622 60.578901 44.733204 62.960342 -0.000007 0.000026 28.724756 2.487824 0.421939 40.189642 0.644348 0.328896 25.716183 -27.198556 2.730874 -16.584136 2.867287 -2.944290 3.959549 -33.320634 11.311031 61.555898 0.000010 0.000015 3.350432 0.011023 -0.011028 -0.022272 0.000005 0.000005 3.756517 0.011029 -0.011023 -0.022280 -0.000000 -0.000006 3.099996 0.000000 0.000000 0.000001 0.086742 -2.345270 10.030884 -5.836064 16.321280 -3.460273 -0.000010 0.000026 4.061127 0.332903 11.722188 -1.670169 0.000001 -0.000001 3.248846 -0.170914 11.722186 -1.670927 0.000001 0.000002 2.639738 0.000000 0.000000 0.000000 -0.104096 -0.006798 9.502935 -0.796203 15.593194 -1.919223 -0.000008 -0.000017 4.568752 0.442497 11.134689 -0.590984 -0.000006 0.000007 3.654960 -0.049319 11.134668 -0.589420 -0.000013 -0.000004 2.741254 0.000001 -0.000001 0.000000 -0.086761 2.267458 8.921698 7.820855 17.096775 0.928120 -0.000018 0.000015 4.061119 -0.917121 12.148458 0.754916 0.000012 0.000009 3.654967 0.083007 12.148144 0.754970 -0.000015 -0.000008 2.741229 0.000002 0.000002 0.000001 0.173485 4.467254 7.976967 16.735265 16.811720 4.045156 0.000008 0.000027 3.350410 -1.749194 12.058001 2.379604 -0.000004 0.000008 2.842749 0.249724 12.057772 2.379393 -0.000012 0.000004 2.639724 -0.000001 -0.000003 -0.000002 0.000008 -0.000010 -0.000016 0.000002 -0.000000 0.000001 -0.000009 0.000001 0.000001 -0.000001 0.000000 0.000000 -11.289945 0.000021 -0.000010 -11.485086 1.654688 11.694680 0.000001 -0.000001 -38.200314 -0.487542 0.119173 13.720635 -0.000042 0.000063 -39.900856 -13.196083 0.797075 15.403900 -0.000023 -15.261622 0.000031 1.260386 0.665113 -17.026166 -0.000003 -7.370722 0.000001 -0.000001 0.000000 0.000001 0.000005 -0.000063 0.000000 0.000000 0.000000 0.000002 -0.000001 -0.000002 -0.000001 0.000000 0.000000 -0.000002 11.315677 0.000006 0.000000 -8.651416 -6.323501 4.144927 0.000016 -0.000020 -38.200333 0.834657 -0.351201 22.459211 -0.000015 -0.000114 -39.900852 1.241290 0.787765 15.500677 -0.000000 -15.261724 0.000047 -0.499669 -1.027668 -22.190929 -0.000036 -7.540029 0.000004 -0.000002 0.000000 0.000000 0.000000 -0.000063 0.000001 0.000000 -0.000000 -0.000001 0.000001 0.000005 0.000003 -0.000001 0.000000 0.000000 
